# xmcd
#
# Track frame offsets:
#	150
#	18040
#	36422
#	55920
#	70430
#	88870
#	104017
#	120930
#	135467
#	149245
#	164460
#	180387
#	196387
#	213530
#	227332
#	244592
#	264035
#	278517
#	294820
#	312627
#
# Disc length: 4357 seconds
#
# Revision: 7
# Processed by: cddbd v1.5.2PL0 Copyright (c) Steve Scherf et al.
# Submitted via: audiograbber 1.83.01
#
DISCID=1f110314
DTITLE=Various Artist - Startube 80  CD1
DYEAR=2001
DGENRE=Pop
TTITLE0=Taxi Girl - Cherchez Le Garçon
TTITLE1=Partenaire Particulier - Partenaire Particulier
TTITLE2=Désireless - Voyage, Voyage
TTITLE3=Kazero - Thaï Na Na
TTITLE4=A Cause Des Garçons - A Cause Des Garçons
TTITLE5=Léopold Nord Et Vous - C'est L'amour
TTITLE6=Caroline Loeb - C'est La Ouate
TTITLE7=Regrets - Je Veux Pas Rentrer Chez Moi Seule
TTITLE8=Sabine Paturel - Les Bêtises
TTITLE9=Sara Mandiano - J'ai Des Doutes
TTITLE10=Yiana Katsoulos - Les Autres Sont Jaloux
TTITLE11=Bill Baxter - Embrasse-Moi Idiot
TTITLE12=Goût De Luxe - Les Yeux De Laura
TTITLE13=Animo - Des Gens Stricts
TTITLE14=Melody - Y A Pas Que Les Grands Qui Rêvent
TTITLE15=Tristan - Bonne Bonne Humeur Ce Matin
TTITLE16=Laroche Valmont - T'as Le Look, Coco
TTITLE17=Gérard Blanchard - Elle Voulait Revoir Sa Normandie
TTITLE18=Simon and Les Maudanais - Etoile Des Neiges
TTITLE19=Patrick Hernandez - Born To Be Alive
EXTD=
EXTT0=
EXTT1=
EXTT2=
EXTT3=
EXTT4=
EXTT5=
EXTT6=
EXTT7=
EXTT8=
EXTT9=
EXTT10=
EXTT11=
EXTT12=
EXTT13=
EXTT14=
EXTT15=
EXTT16=
EXTT17=
EXTT18=
EXTT19=
PLAYORDER=
